<?xml version="1.0" encoding="UTF-8" standalone="no"?>
<!DOCTYPE svg PUBLIC "-//W3C//DTD SVG 1.0//EN" "http://www.w3.org/TR/2001/PR-SVG-20010719/DTD/svg10.dtd">
<svg width="26cm" height="22cm" viewBox="316 189 503 427" xmlns="http://www.w3.org/2000/svg" xmlns:xlink="http://www.w3.org/1999/xlink">
  <g>
    <polygon style="fill: #ffffff" points="624,203 634,193 818,193 818,386 808,396 624,396 624,203 "/>
    <polygon style="fill: none; fill-opacity:0; stroke-width: 2; stroke: #000000" points="624,203 634,193 818,193 818,386 808,396 624,396 624,203 "/>
    <line style="fill: none; fill-opacity:0; stroke-width: 2; stroke: #000000" x1="624" y1="203" x2="808" y2="203"/>
    <line style="fill: none; fill-opacity:0; stroke-width: 2; stroke: #000000" x1="808" y1="203" x2="818" y2="193"/>
    <line style="fill: none; fill-opacity:0; stroke-width: 2; stroke: #000000" x1="808" y1="203" x2="808" y2="396"/>
    <text font-size="12.7998" style="fill: #000000;text-anchor:start;font-family:sans-serif;font-style:normal;font-weight:normal" x="634" y="227.85">
      <tspan x="634" y="227.85">Botnana Control</tspan>
    </text>
    <line style="fill: none; fill-opacity:0; stroke-width: 1; stroke: #000000" x1="634" y1="231.95" x2="732.35" y2="231.95"/>
  </g>
  <g>
    <polygon style="fill: #ffffff" points="318,475 328,465 454.05,465 454.05,517 444.05,527 318,527 318,475 "/>
    <polygon style="fill: none; fill-opacity:0; stroke-width: 2; stroke: #000000" points="318,475 328,465 454.05,465 454.05,517 444.05,527 318,527 318,475 "/>
    <line style="fill: none; fill-opacity:0; stroke-width: 2; stroke: #000000" x1="318" y1="475" x2="444.05" y2="475"/>
    <line style="fill: none; fill-opacity:0; stroke-width: 2; stroke: #000000" x1="444.05" y1="475" x2="454.05" y2="465"/>
    <line style="fill: none; fill-opacity:0; stroke-width: 2; stroke: #000000" x1="444.05" y1="475" x2="444.05" y2="527"/>
    <text font-size="12.7998" style="fill: #000000;text-anchor:start;font-family:sans-serif;font-style:normal;font-weight:normal" x="328" y="499.85">
      <tspan x="328" y="499.85">Industrial Camera</tspan>
      <tspan x="328" y="515.85"></tspan>
    </text>
    <line style="fill: none; fill-opacity:0; stroke-width: 1; stroke: #000000" x1="328" y1="503.95" x2="434.05" y2="503.95"/>
    <line style="fill: none; fill-opacity:0; stroke-width: 1; stroke: #000000" x1="328" y1="519.95" x2="328" y2="519.95"/>
  </g>
  <g>
    <polygon style="fill: #ffffff" points="634,475 644,465 807,465 807,606 797,616 634,616 634,475 "/>
    <polygon style="fill: none; fill-opacity:0; stroke-width: 2; stroke: #000000" points="634,475 644,465 807,465 807,606 797,616 634,616 634,475 "/>
    <line style="fill: none; fill-opacity:0; stroke-width: 2; stroke: #000000" x1="634" y1="475" x2="797" y2="475"/>
    <line style="fill: none; fill-opacity:0; stroke-width: 2; stroke: #000000" x1="797" y1="475" x2="807" y2="465"/>
    <line style="fill: none; fill-opacity:0; stroke-width: 2; stroke: #000000" x1="797" y1="475" x2="797" y2="616"/>
    <text font-size="12.7998" style="fill: #000000;text-anchor:start;font-family:sans-serif;font-style:normal;font-weight:normal" x="644" y="499.85">
      <tspan x="644" y="499.85">EtherCAT Slaves</tspan>
    </text>
    <line style="fill: none; fill-opacity:0; stroke-width: 1; stroke: #000000" x1="644" y1="503.95" x2="739.65" y2="503.95"/>
  </g>
  <g>
    <polygon style="fill: #ffffff" points="326,201 336,191 446,191 446,388 436,398 326,398 326,201 "/>
    <polygon style="fill: none; fill-opacity:0; stroke-width: 2; stroke: #000000" points="326,201 336,191 446,191 446,388 436,398 326,398 326,201 "/>
    <line style="fill: none; fill-opacity:0; stroke-width: 2; stroke: #000000" x1="326" y1="201" x2="436" y2="201"/>
    <line style="fill: none; fill-opacity:0; stroke-width: 2; stroke: #000000" x1="436" y1="201" x2="446" y2="191"/>
    <line style="fill: none; fill-opacity:0; stroke-width: 2; stroke: #000000" x1="436" y1="201" x2="436" y2="398"/>
    <text font-size="12.7998" style="fill: #000000;text-anchor:start;font-family:sans-serif;font-style:normal;font-weight:normal" x="336" y="225.85">
      <tspan x="336" y="225.85">IPC</tspan>
      <tspan x="336" y="241.85"></tspan>
      <tspan x="336" y="257.85"></tspan>
      <tspan x="336" y="273.85"></tspan>
      <tspan x="336" y="289.85"></tspan>
      <tspan x="336" y="305.85"></tspan>
      <tspan x="336" y="321.85"></tspan>
      <tspan x="336" y="337.85"></tspan>
    </text>
    <line style="fill: none; fill-opacity:0; stroke-width: 1; stroke: #000000" x1="336" y1="229.95" x2="356" y2="229.95"/>
    <line style="fill: none; fill-opacity:0; stroke-width: 1; stroke: #000000" x1="336" y1="245.95" x2="336" y2="245.95"/>
    <line style="fill: none; fill-opacity:0; stroke-width: 1; stroke: #000000" x1="336" y1="261.95" x2="336" y2="261.95"/>
    <line style="fill: none; fill-opacity:0; stroke-width: 1; stroke: #000000" x1="336" y1="277.95" x2="336" y2="277.95"/>
    <line style="fill: none; fill-opacity:0; stroke-width: 1; stroke: #000000" x1="336" y1="293.95" x2="336" y2="293.95"/>
    <line style="fill: none; fill-opacity:0; stroke-width: 1; stroke: #000000" x1="336" y1="309.95" x2="336" y2="309.95"/>
    <line style="fill: none; fill-opacity:0; stroke-width: 1; stroke: #000000" x1="336" y1="325.95" x2="336" y2="325.95"/>
    <line style="fill: none; fill-opacity:0; stroke-width: 1; stroke: #000000" x1="336" y1="341.95" x2="336" y2="341.95"/>
  </g>
  <g>
    <polyline style="fill: none; fill-opacity:0; stroke-width: 2; stroke: #000000" points="436,299.5 533,299.5 533,299.5 624,299.5 "/>
    <text font-size="12.7998" style="fill: #000000;text-anchor:middle;font-family:monospace;font-style:normal;font-weight:normal" x="533" y="296.5">Websocket every 50ms</text>
    <polygon style="fill: #000000" points="612,296.5 612,288.5 620,292.5 "/>
  </g>
  <g>
    <polyline style="fill: none; fill-opacity:0; stroke-width: 2; stroke: #000000" points="381,399.001 381,441 381.025,441 381.025,464.013 "/>
    <text font-size="12.7998" style="fill: #000000;text-anchor:middle;font-family:monospace;font-style:normal;font-weight:normal" x="381.012" y="438">USB 3.0</text>
    <polygon style="fill: #000000" points="409.962,438 409.962,430 417.962,434 "/>
  </g>
  <g>
    <polyline style="fill: none; fill-opacity:0; stroke-width: 2; stroke: #000000" points="716,396.985 716,431 715.5,431 715.5,464.042 "/>
    <text font-size="12.7998" style="fill: #000000;text-anchor:middle;font-family:monospace;font-style:normal;font-weight:normal" x="715.75" y="428">EtherCAT every 1ms</text>
    <polygon style="fill: #000000" points="787.05,428 787.05,420 795.05,424 "/>
  </g>
  <g>
    <rect style="fill: #ffffff" x="355" y="317" width="60" height="70"/>
    <rect style="fill: none; fill-opacity:0; stroke-width: 2; stroke: #000000" x="355" y="317" width="60" height="70"/>
    <rect style="fill: #ffffff" x="335" y="331" width="40" height="14"/>
    <rect style="fill: none; fill-opacity:0; stroke-width: 2; stroke: #000000" x="335" y="331" width="40" height="14"/>
    <rect style="fill: #ffffff" x="335" y="359" width="40" height="14"/>
    <rect style="fill: none; fill-opacity:0; stroke-width: 2; stroke: #000000" x="335" y="359" width="40" height="14"/>
    <text font-size="12.7998" style="fill: #000000;text-anchor:start;font-family:sans-serif;font-style:normal;font-weight:normal" x="383" y="345.85">
      <tspan x="383" y="345.85">AOI</tspan>
    </text>
  </g>
  <g>
    <rect style="fill: #ffffff" x="355" y="235" width="60" height="70"/>
    <rect style="fill: none; fill-opacity:0; stroke-width: 2; stroke: #000000" x="355" y="235" width="60" height="70"/>
    <rect style="fill: #ffffff" x="335" y="249" width="40" height="14"/>
    <rect style="fill: none; fill-opacity:0; stroke-width: 2; stroke: #000000" x="335" y="249" width="40" height="14"/>
    <rect style="fill: #ffffff" x="335" y="277" width="40" height="14"/>
    <rect style="fill: none; fill-opacity:0; stroke-width: 2; stroke: #000000" x="335" y="277" width="40" height="14"/>
    <text font-size="12.7998" style="fill: #000000;text-anchor:start;font-family:sans-serif;font-style:normal;font-weight:normal" x="383" y="263.85">
      <tspan x="383" y="263.85">HMI</tspan>
    </text>
  </g>
  <g>
    <rect style="fill: #ffffff" x="661" y="319" width="90.6" height="70"/>
    <rect style="fill: none; fill-opacity:0; stroke-width: 2; stroke: #000000" x="661" y="319" width="90.6" height="70"/>
    <rect style="fill: #ffffff" x="641" y="333" width="40" height="14"/>
    <rect style="fill: none; fill-opacity:0; stroke-width: 2; stroke: #000000" x="641" y="333" width="40" height="14"/>
    <rect style="fill: #ffffff" x="641" y="361" width="40" height="14"/>
    <rect style="fill: none; fill-opacity:0; stroke-width: 2; stroke: #000000" x="641" y="361" width="40" height="14"/>
    <text font-size="12.7998" style="fill: #000000;text-anchor:start;font-family:sans-serif;font-style:normal;font-weight:normal" x="689" y="347.85">
      <tspan x="689" y="347.85">EtherCAT</tspan>
      <tspan x="689" y="363.85">Master</tspan>
    </text>
  </g>
  <g>
    <rect style="fill: #ffffff" x="660" y="242" width="129.5" height="70"/>
    <rect style="fill: none; fill-opacity:0; stroke-width: 2; stroke: #000000" x="660" y="242" width="129.5" height="70"/>
    <rect style="fill: #ffffff" x="640" y="256" width="40" height="14"/>
    <rect style="fill: none; fill-opacity:0; stroke-width: 2; stroke: #000000" x="640" y="256" width="40" height="14"/>
    <rect style="fill: #ffffff" x="640" y="284" width="40" height="14"/>
    <rect style="fill: none; fill-opacity:0; stroke-width: 2; stroke: #000000" x="640" y="284" width="40" height="14"/>
    <text font-size="12.7998" style="fill: #000000;text-anchor:start;font-family:sans-serif;font-style:normal;font-weight:normal" x="688" y="270.85">
      <tspan x="688" y="270.85">Motion</tspan>
      <tspan x="688" y="286.85">Control w/</tspan>
      <tspan x="688" y="302.85">Real-time script</tspan>
    </text>
  </g>
  <g>
    <rect style="fill: #ffffff" x="672" y="524" width="107.2" height="70"/>
    <rect style="fill: none; fill-opacity:0; stroke-width: 2; stroke: #000000" x="672" y="524" width="107.2" height="70"/>
    <rect style="fill: #ffffff" x="652" y="538" width="40" height="14"/>
    <rect style="fill: none; fill-opacity:0; stroke-width: 2; stroke: #000000" x="652" y="538" width="40" height="14"/>
    <rect style="fill: #ffffff" x="652" y="566" width="40" height="14"/>
    <rect style="fill: none; fill-opacity:0; stroke-width: 2; stroke: #000000" x="652" y="566" width="40" height="14"/>
    <text font-size="12.7998" style="fill: #000000;text-anchor:start;font-family:sans-serif;font-style:normal;font-weight:normal" x="700" y="552.85">
      <tspan x="700" y="552.85">CMP Trigger</tspan>
    </text>
  </g>
</svg>
